<?xml version="1.0" standalone="no"?>
<!DOCTYPE svg PUBLIC "-//W3C//DTD SVG 20010904//EN"
 "http://www.w3.org/TR/2001/REC-SVG-20010904/DTD/svg10.dtd">
<svg version="1.0" xmlns="http://www.w3.org/2000/svg"
 width="500.000000pt" height="500.000000pt" viewBox="0 0 500.000000 500.000000"
 preserveAspectRatio="xMidYMid meet">
<metadata>
Created by potrace 1.11, written by Peter Selinger 2001-2013
</metadata>
<g transform="translate(0.000000,500.000000) scale(0.100000,-0.100000)"
fill="#000000" stroke="none">
<path d="M2290 4172 c0 -6 -13 -8 -30 -6 -21 4 -32 1 -36 -10 -3 -9 -10 -14
-14 -11 -5 3 -11 1 -15 -5 -3 -5 -14 -10 -23 -10 -10 0 -29 -11 -44 -25 -15
-14 -32 -25 -38 -25 -6 0 -9 -4 -5 -9 3 -5 -5 -13 -17 -17 -22 -7 -126 -104
-112 -104 4 0 1 -6 -8 -12 -18 -14 -51 -66 -70 -110 -7 -16 -16 -28 -20 -28
-4 0 -8 -9 -8 -21 0 -11 -4 -18 -9 -15 -5 4 -8 -2 -6 -11 1 -10 -2 -24 -8 -30
-5 -7 -6 -13 -2 -13 4 0 0 -12 -10 -26 -11 -18 -12 -24 -4 -18 11 6 11 5 0 -9
-8 -10 -11 -20 -8 -24 4 -3 1 -15 -5 -26 -20 -37 -9 -247 13 -255 5 -2 9 -10
9 -18 0 -18 36 -85 42 -79 3 3 5 -2 5 -10 0 -8 -4 -12 -8 -9 -5 2 -16 -7 -25
-21 -9 -13 -21 -22 -27 -18 -5 3 -7 1 -3 -5 3 -6 -6 -20 -20 -31 -15 -12 -23
-21 -19 -21 4 0 -4 -11 -19 -25 -14 -13 -26 -26 -26 -29 0 -4 -31 -43 -62 -76
-9 -10 -14 -21 -11 -24 3 -3 -2 -8 -11 -12 -9 -3 -16 -16 -16 -28 0 -16 -2
-18 -9 -7 -7 10 -11 5 -16 -18 -4 -17 -10 -29 -14 -27 -4 3 -16 -12 -27 -32
-10 -20 -25 -43 -31 -50 -7 -7 -13 -19 -13 -27 0 -7 -7 -16 -16 -19 -8 -3 -12
-10 -9 -16 3 -5 2 -10 -3 -10 -10 0 -48 -70 -44 -82 1 -5 -3 -8 -8 -8 -6 0
-10 -7 -10 -16 0 -9 -5 -12 -12 -8 -7 4 -10 4 -6 -1 4 -4 2 -17 -4 -29 -7 -11
-11 -24 -10 -28 1 -5 -4 -8 -12 -8 -8 0 -14 -6 -13 -12 1 -19 -26 -78 -35 -78
-4 0 -8 -9 -8 -19 0 -11 -3 -21 -7 -23 -12 -5 -76 -145 -76 -165 0 -7 -4 -13
-9 -13 -4 0 -8 -12 -8 -26 0 -14 -4 -23 -8 -20 -4 2 -9 -5 -10 -17 -3 -33 -7
-51 -13 -62 -3 -5 -5 -22 -4 -37 0 -15 -3 -24 -7 -22 -9 6 -9 2 -11 -129 -1
-49 2 -98 7 -110 5 -12 10 -33 11 -47 1 -14 6 -41 10 -60 5 -19 8 -39 7 -43
-2 -5 2 -6 8 -2 6 4 10 -4 10 -19 0 -14 4 -26 10 -26 5 0 7 -6 4 -14 -3 -8 -1
-17 5 -21 6 -3 11 -13 11 -20 0 -8 7 -23 15 -32 8 -10 15 -22 14 -26 0 -5 9
-17 21 -27 12 -10 20 -20 18 -22 -7 -8 76 -87 86 -81 6 3 8 3 4 -1 -9 -10 20
-38 71 -68 22 -13 38 -28 34 -31 -3 -4 1 -7 10 -7 9 0 31 -9 50 -20 32 -19 34
-23 23 -45 -8 -17 -17 -23 -33 -21 -12 3 -24 1 -28 -2 -4 -4 -19 -8 -33 -8
-59 -4 -58 -3 -42 -15 12 -8 9 -10 -13 -6 -15 2 -25 2 -22 -1 3 -3 -12 -14
-32 -23 -21 -10 -35 -18 -31 -19 3 0 -12 -18 -35 -41 -23 -22 -42 -44 -43 -47
-2 -16 -23 -56 -24 -47 -1 6 -7 -12 -15 -40 -7 -27 -11 -57 -10 -67 2 -10 -1
-18 -7 -18 -7 0 -7 -4 0 -13 7 -8 7 -18 2 -27 -5 -8 -7 -17 -5 -20 2 -4 5 -24
7 -44 1 -21 6 -40 10 -42 4 -3 8 -14 8 -25 0 -11 4 -17 10 -14 5 3 10 0 10 -7
0 -20 102 -123 112 -113 2 2 4 -62 5 -144 2 -101 -2 -161 -12 -193 -7 -25 -11
-49 -8 -52 4 -3 2 -6 -3 -6 -5 0 -11 -11 -12 -26 -1 -14 -6 -33 -12 -43 -5
-10 -6 -22 -2 -26 4 -5 0 -6 -9 -2 -12 4 -16 1 -12 -13 3 -10 0 -21 -6 -24 -6
-4 -11 -11 -11 -17 0 -5 417 -9 1094 -9 866 0 1095 3 1098 13 3 6 4 56 4 110
-1 53 1 91 3 85 2 -7 10 -21 19 -30 8 -10 12 -18 7 -18 -4 0 -2 -7 5 -15 7 -8
10 -15 6 -15 -4 0 1 -11 10 -25 9 -14 13 -25 9 -25 -5 0 0 -9 10 -20 10 -11
15 -20 12 -20 -4 0 1 -9 10 -20 16 -19 29 -20 213 -19 107 0 189 3 183 6 -7 2
-13 13 -13 24 0 10 -3 19 -7 19 -7 0 -44 57 -46 70 0 3 -7 11 -14 18 -7 8 -11
18 -8 23 4 5 1 9 -5 9 -6 0 -8 5 -5 10 3 5 1 10 -4 10 -6 0 -11 9 -11 20 0 11
-4 20 -9 20 -5 0 -11 18 -15 40 -4 23 -11 38 -16 35 -9 -6 -15 16 -11 39 1 4
-7 24 -19 43 -11 19 -16 31 -10 28 5 -3 10 -1 10 4 0 6 -5 11 -11 11 -6 0 -9
7 -6 15 4 8 2 17 -3 20 -6 4 -10 24 -10 46 0 30 -3 38 -12 33 -9 -5 -9 -2 1 9
9 11 10 17 2 17 -22 0 -10 23 37 70 63 65 74 79 68 89 -3 5 1 14 8 20 8 7 17
30 21 52 5 26 11 37 18 32 8 -5 8 -2 0 9 -7 8 -9 18 -5 22 10 11 10 86 -1 79
-4 -3 -7 1 -6 8 4 24 -13 109 -21 104 -4 -2 -13 14 -20 36 -8 22 -23 47 -34
55 -11 8 -17 14 -13 14 3 0 -10 15 -29 33 -20 17 -46 42 -60 55 -13 13 -24 19
-24 15 0 -4 -4 -3 -8 2 -6 9 -32 23 -102 54 -14 6 -37 12 -52 13 -16 1 -28 5
-28 8 0 8 -44 5 -58 -4 -22 -14 -12 9 18 38 17 16 30 33 30 38 0 5 4 7 9 4 5
-3 14 8 20 25 6 17 14 28 19 25 5 -3 15 13 22 34 7 22 19 45 26 51 7 6 11 19
9 30 -2 11 0 17 6 14 5 -4 9 3 9 14 0 12 4 21 8 21 5 0 9 6 9 13 0 6 4 26 8
42 4 17 7 41 8 55 1 14 5 30 9 36 9 14 7 314 -3 314 -4 0 -6 8 -5 17 2 9 -1
35 -6 57 -5 23 -9 51 -9 64 1 12 -4 22 -9 22 -6 0 -10 13 -10 28 0 16 -3 32
-7 36 -4 3 -8 14 -9 23 -2 10 -7 26 -13 38 -5 11 -17 44 -27 73 -10 28 -22 52
-27 52 -4 0 -6 4 -2 9 3 5 1 12 -5 16 -6 4 -8 10 -5 15 3 5 -2 15 -10 24 -8 8
-18 29 -21 45 -4 17 -10 29 -14 26 -5 -3 -16 15 -26 39 -10 24 -22 42 -26 40
-5 -3 -8 4 -8 15 0 12 -4 21 -10 21 -5 0 -10 7 -10 15 0 8 -4 15 -10 15 -5 0
-10 7 -10 15 0 8 -5 15 -11 15 -5 0 -8 4 -4 9 3 5 1 12 -5 16 -6 4 -8 11 -5
16 3 5 0 6 -8 3 -10 -3 -17 4 -21 21 -4 14 -10 23 -15 21 -5 -3 -11 4 -15 17
-3 12 -5 22 -4 22 1 0 -18 19 -41 43 -23 23 -39 42 -36 42 2 0 -15 21 -40 46
-25 25 -45 48 -45 52 0 4 -9 13 -20 20 -12 7 -18 18 -14 24 4 6 3 8 -3 5 -5
-4 -23 8 -39 26 -16 18 -54 52 -83 77 -30 25 -62 53 -72 62 -10 9 -33 25 -51
34 -18 9 -37 23 -41 30 -4 8 -14 14 -22 14 -8 0 -24 8 -35 18 -11 9 -24 17
-28 17 -4 1 -23 9 -43 18 -30 15 -35 22 -31 42 2 14 8 25 13 25 5 0 9 14 9 31
0 16 4 28 8 25 9 -5 9 2 13 105 1 36 -2 72 -6 79 -6 9 -4 11 4 6 9 -6 11 1 6
26 -3 18 -7 48 -8 65 -1 18 -5 33 -9 33 -5 0 -8 11 -8 25 0 14 -4 25 -9 25 -5
0 -12 12 -15 26 -4 15 -12 32 -19 40 -7 7 -25 30 -40 52 -16 21 -44 45 -63 52
-19 8 -34 18 -34 22 0 5 -4 7 -9 3 -5 -3 -15 1 -23 8 -7 8 -20 14 -28 14 -8 0
-39 4 -69 7 -43 6 -52 5 -45 -6 6 -10 4 -10 -9 1 -10 7 -17 9 -17 3z m370
-706 c0 -2 -7 -7 -16 -10 -8 -3 -12 -2 -9 4 6 10 25 14 25 6z"/>
</g>
</svg>
